<svg width="38" height="48" viewBox="0 0 38 48" fill="none" xmlns="http://www.w3.org/2000/svg">
<mask id="path-1-inside-1" fill="white">
<path d="M36.9744 21.9851C37.1711 20.8715 36.9968 19.7292 36.4954 18.7324C36.9968 17.7356 37.1707 16.5934 36.9744 15.4794C36.7781 14.3657 36.224 13.3521 35.4118 12.5867C35.5422 11.4785 35.3151 10.3458 34.7493 9.36621C34.1839 8.3866 33.3163 7.62341 32.2917 7.18213C32.035 6.09631 31.4344 5.10974 30.5679 4.38245C29.7011 3.65552 28.6252 3.23511 27.5112 3.17102C26.8985 2.23828 25.9965 1.51648 24.9334 1.12976C23.8707 0.743042 22.7156 0.715942 21.647 1.03674C20.7524 0.369873 19.6578 0 18.5265 0C17.3957 0 16.3011 0.369873 15.4064 1.03674C14.3378 0.715942 13.1828 0.743042 12.1197 1.12976C11.0569 1.51685 10.155 2.23865 9.54228 3.17102C8.42827 3.23547 7.35197 3.65552 6.48552 4.38245C5.61906 5.10974 5.01848 6.09631 4.76176 7.1825C3.73674 7.62378 2.86955 8.3866 2.30376 9.36621C1.73833 10.3458 1.51128 11.4785 1.64165 12.5867C0.829391 13.3521 0.275314 14.3657 0.0790247 15.4794C-0.117631 16.5934 0.0566859 17.7356 0.558029 18.7324C0.0566859 19.7292 -0.117631 20.8715 0.0790247 21.9851C0.275314 23.0991 0.829391 24.1128 1.64165 24.8782C1.51128 25.9863 1.73833 27.119 2.30376 28.0986C2.86955 29.0782 3.73711 29.8411 4.76176 30.2823C4.93608 31.0203 5.2697 31.7124 5.73735 32.3082L1.61748 40.9303C1.38493 41.4166 1.45122 41.993 1.7874 42.4146C2.12395 42.8357 2.67143 43.0276 3.19731 42.9082L9.40312 41.5009L12.2068 47.2134C12.443 47.6949 12.933 48 13.4692 48H13.4765C14.0155 47.9974 14.5055 47.6865 14.7381 47.2002L18.5265 39.2717L22.3154 47.2002C22.5475 47.6865 23.0375 47.9971 23.5766 48H23.5843C24.12 48 24.61 47.6949 24.8466 47.2134L27.6503 41.5009L33.8558 42.9082C34.3816 43.0276 34.9291 42.8357 35.2657 42.4146C35.6022 41.993 35.6681 41.4166 35.4356 40.9303L31.3157 32.3082C31.7834 31.7124 32.117 31.0203 32.2913 30.2823C33.3163 29.8411 34.1839 29.0782 34.7493 28.0986C35.3147 27.119 35.5418 25.9863 35.4118 24.8782C36.2237 24.1128 36.7781 23.0991 36.9744 21.9851ZM33.7305 19.5978C34.1502 20.135 34.3227 20.8271 34.2048 21.4969C34.0865 22.1667 33.6873 22.7578 33.1098 23.1193C32.5627 23.4613 32.3184 24.1318 32.5176 24.7456C32.7282 25.3938 32.6539 26.1031 32.3136 26.6924C31.9738 27.2812 31.3963 27.7006 30.7298 27.8423C30.0988 27.9767 29.6399 28.5234 29.6172 29.1683C29.5931 29.8491 29.2807 30.4904 28.7596 30.9276C28.2385 31.3649 27.5529 31.5615 26.878 31.4667C26.2389 31.3766 25.6208 31.734 25.3791 32.332C25.1238 32.9637 24.6108 33.4596 23.9714 33.6921C23.3323 33.9247 22.6208 33.8749 22.0191 33.5552C21.4489 33.2523 20.7461 33.3761 20.3144 33.8558C19.8584 34.3619 19.2066 34.6523 18.5265 34.6523C17.8465 34.6523 17.1946 34.3619 16.7387 33.8558C16.4648 33.5515 16.0821 33.3907 15.6935 33.3907C15.469 33.3907 15.2427 33.4442 15.034 33.5552C14.4327 33.8749 13.7207 33.9247 13.0817 33.6921C12.4427 33.4596 11.9296 32.9637 11.674 32.332C11.4323 31.734 10.8145 31.3773 10.1751 31.4667C9.50017 31.5612 8.81462 31.3649 8.2935 30.9276C7.77239 30.4904 7.46001 29.8491 7.43584 29.1683C7.41313 28.5234 6.95464 27.9767 6.32329 27.8423C5.65715 27.7006 5.07964 27.2812 4.73943 26.6924C4.39958 26.1031 4.32524 25.3938 4.53545 24.7456C4.73466 24.1318 4.4904 23.4613 3.94328 23.1193C3.36577 22.7578 2.9666 22.1667 2.84868 21.4969C2.73039 20.8271 2.90324 20.135 3.32256 19.5978C3.71953 19.0891 3.71953 18.3757 3.32256 17.8671C2.90324 17.3298 2.73039 16.6377 2.84868 15.9679C2.9666 15.2981 3.36577 14.7067 3.94328 14.3456C4.4904 14.0035 4.73466 13.333 4.53545 12.7192C4.32524 12.071 4.39958 11.3617 4.73943 10.7725C5.07964 10.1836 5.65678 9.76428 6.32329 9.62256C6.95427 9.48816 7.41313 8.94141 7.43584 8.29651C7.46001 7.61572 7.77239 6.97449 8.2935 6.53723C8.81425 6.09998 9.50017 5.90369 10.1751 5.99817C10.8141 6.08826 11.4319 5.73083 11.674 5.13245C11.9296 4.5011 12.4427 4.00525 13.0817 3.77271C13.7207 3.53979 14.4323 3.58997 15.034 3.90967C15.6038 4.21216 16.3069 4.08838 16.7387 3.60901C17.195 3.10291 17.8465 2.8125 18.5265 2.8125C19.207 2.8125 19.8584 3.10291 20.3144 3.60901C20.7465 4.08838 21.4493 4.21252 22.0191 3.90967C22.6208 3.58997 23.3327 3.54016 23.9717 3.77271C24.6108 4.00525 25.1238 4.5011 25.3791 5.13281C25.6211 5.73083 26.2393 6.08789 26.8783 5.99817C27.5529 5.90369 28.2388 6.09998 28.7599 6.53723C29.2807 6.97449 29.5934 7.61572 29.6172 8.29651C29.6403 8.94177 30.0988 9.48816 30.7302 9.62256C31.3963 9.76428 31.9738 10.1836 32.3136 10.7725C32.6539 11.3617 32.7282 12.071 32.518 12.7192C32.3188 13.333 32.5627 14.0035 33.1098 14.3456C33.6877 14.707 34.0868 15.2985 34.2048 15.9679C34.323 16.6377 34.1502 17.3298 33.7309 17.8671C33.3335 18.3757 33.3335 19.0891 33.7305 19.5978ZM27.1885 38.5122C26.5531 38.3683 25.902 38.6792 25.6149 39.264L23.6011 43.3678L20.5788 37.043C20.9567 36.8811 21.3156 36.6753 21.647 36.4281C22.7156 36.7489 23.8707 36.7218 24.9338 36.3351C25.9965 35.9484 26.8985 35.2262 27.5112 34.2938C28.0213 34.2645 28.5226 34.1594 29.0002 33.9858L31.6464 39.5233L27.1885 38.5122ZM11.4385 39.264C11.1983 38.7751 10.7035 38.4774 10.1766 38.4774C10.0733 38.4774 9.96892 38.4888 9.86491 38.5122L5.40703 39.5229L8.05327 33.9855C8.53081 34.1594 9.03252 34.2642 9.54228 34.2938C10.155 35.2262 11.0569 35.948 12.1197 36.3347C13.1828 36.7218 14.3378 36.7485 15.4064 36.4281C15.7378 36.6749 16.0967 36.8811 16.4747 37.0426L13.4523 43.3674L11.4385 39.264Z"/>
</mask>
<path d="M36.9744 21.9851C37.1711 20.8715 36.9968 19.7292 36.4954 18.7324C36.9968 17.7356 37.1707 16.5934 36.9744 15.4794C36.7781 14.3657 36.224 13.3521 35.4118 12.5867C35.5422 11.4785 35.3151 10.3458 34.7493 9.36621C34.1839 8.3866 33.3163 7.62341 32.2917 7.18213C32.035 6.09631 31.4344 5.10974 30.5679 4.38245C29.7011 3.65552 28.6252 3.23511 27.5112 3.17102C26.8985 2.23828 25.9965 1.51648 24.9334 1.12976C23.8707 0.743042 22.7156 0.715942 21.647 1.03674C20.7524 0.369873 19.6578 0 18.5265 0C17.3957 0 16.3011 0.369873 15.4064 1.03674C14.3378 0.715942 13.1828 0.743042 12.1197 1.12976C11.0569 1.51685 10.155 2.23865 9.54228 3.17102C8.42827 3.23547 7.35197 3.65552 6.48552 4.38245C5.61906 5.10974 5.01848 6.09631 4.76176 7.1825C3.73674 7.62378 2.86955 8.3866 2.30376 9.36621C1.73833 10.3458 1.51128 11.4785 1.64165 12.5867C0.829391 13.3521 0.275314 14.3657 0.0790247 15.4794C-0.117631 16.5934 0.0566859 17.7356 0.558029 18.7324C0.0566859 19.7292 -0.117631 20.8715 0.0790247 21.9851C0.275314 23.0991 0.829391 24.1128 1.64165 24.8782C1.51128 25.9863 1.73833 27.119 2.30376 28.0986C2.86955 29.0782 3.73711 29.8411 4.76176 30.2823C4.93608 31.0203 5.2697 31.7124 5.73735 32.3082L1.61748 40.9303C1.38493 41.4166 1.45122 41.993 1.7874 42.4146C2.12395 42.8357 2.67143 43.0276 3.19731 42.9082L9.40312 41.5009L12.2068 47.2134C12.443 47.6949 12.933 48 13.4692 48H13.4765C14.0155 47.9974 14.5055 47.6865 14.7381 47.2002L18.5265 39.2717L22.3154 47.2002C22.5475 47.6865 23.0375 47.9971 23.5766 48H23.5843C24.12 48 24.61 47.6949 24.8466 47.2134L27.6503 41.5009L33.8558 42.9082C34.3816 43.0276 34.9291 42.8357 35.2657 42.4146C35.6022 41.993 35.6681 41.4166 35.4356 40.9303L31.3157 32.3082C31.7834 31.7124 32.117 31.0203 32.2913 30.2823C33.3163 29.8411 34.1839 29.0782 34.7493 28.0986C35.3147 27.119 35.5418 25.9863 35.4118 24.8782C36.2237 24.1128 36.7781 23.0991 36.9744 21.9851ZM33.7305 19.5978C34.1502 20.135 34.3227 20.8271 34.2048 21.4969C34.0865 22.1667 33.6873 22.7578 33.1098 23.1193C32.5627 23.4613 32.3184 24.1318 32.5176 24.7456C32.7282 25.3938 32.6539 26.1031 32.3136 26.6924C31.9738 27.2812 31.3963 27.7006 30.7298 27.8423C30.0988 27.9767 29.6399 28.5234 29.6172 29.1683C29.5931 29.8491 29.2807 30.4904 28.7596 30.9276C28.2385 31.3649 27.5529 31.5615 26.878 31.4667C26.2389 31.3766 25.6208 31.734 25.3791 32.332C25.1238 32.9637 24.6108 33.4596 23.9714 33.6921C23.3323 33.9247 22.6208 33.8749 22.0191 33.5552C21.4489 33.2523 20.7461 33.3761 20.3144 33.8558C19.8584 34.3619 19.2066 34.6523 18.5265 34.6523C17.8465 34.6523 17.1946 34.3619 16.7387 33.8558C16.4648 33.5515 16.0821 33.3907 15.6935 33.3907C15.469 33.3907 15.2427 33.4442 15.034 33.5552C14.4327 33.8749 13.7207 33.9247 13.0817 33.6921C12.4427 33.4596 11.9296 32.9637 11.674 32.332C11.4323 31.734 10.8145 31.3773 10.1751 31.4667C9.50017 31.5612 8.81462 31.3649 8.2935 30.9276C7.77239 30.4904 7.46001 29.8491 7.43584 29.1683C7.41313 28.5234 6.95464 27.9767 6.32329 27.8423C5.65715 27.7006 5.07964 27.2812 4.73943 26.6924C4.39958 26.1031 4.32524 25.3938 4.53545 24.7456C4.73466 24.1318 4.4904 23.4613 3.94328 23.1193C3.36577 22.7578 2.9666 22.1667 2.84868 21.4969C2.73039 20.8271 2.90324 20.135 3.32256 19.5978C3.71953 19.0891 3.71953 18.3757 3.32256 17.8671C2.90324 17.3298 2.73039 16.6377 2.84868 15.9679C2.9666 15.2981 3.36577 14.7067 3.94328 14.3456C4.4904 14.0035 4.73466 13.333 4.53545 12.7192C4.32524 12.071 4.39958 11.3617 4.73943 10.7725C5.07964 10.1836 5.65678 9.76428 6.32329 9.62256C6.95427 9.48816 7.41313 8.94141 7.43584 8.29651C7.46001 7.61572 7.77239 6.97449 8.2935 6.53723C8.81425 6.09998 9.50017 5.90369 10.1751 5.99817C10.8141 6.08826 11.4319 5.73083 11.674 5.13245C11.9296 4.5011 12.4427 4.00525 13.0817 3.77271C13.7207 3.53979 14.4323 3.58997 15.034 3.90967C15.6038 4.21216 16.3069 4.08838 16.7387 3.60901C17.195 3.10291 17.8465 2.8125 18.5265 2.8125C19.207 2.8125 19.8584 3.10291 20.3144 3.60901C20.7465 4.08838 21.4493 4.21252 22.0191 3.90967C22.6208 3.58997 23.3327 3.54016 23.9717 3.77271C24.6108 4.00525 25.1238 4.5011 25.3791 5.13281C25.6211 5.73083 26.2393 6.08789 26.8783 5.99817C27.5529 5.90369 28.2388 6.09998 28.7599 6.53723C29.2807 6.97449 29.5934 7.61572 29.6172 8.29651C29.6403 8.94177 30.0988 9.48816 30.7302 9.62256C31.3963 9.76428 31.9738 10.1836 32.3136 10.7725C32.6539 11.3617 32.7282 12.071 32.518 12.7192C32.3188 13.333 32.5627 14.0035 33.1098 14.3456C33.6877 14.707 34.0868 15.2985 34.2048 15.9679C34.323 16.6377 34.1502 17.3298 33.7309 17.8671C33.3335 18.3757 33.3335 19.0891 33.7305 19.5978ZM27.1885 38.5122C26.5531 38.3683 25.902 38.6792 25.6149 39.264L23.6011 43.3678L20.5788 37.043C20.9567 36.8811 21.3156 36.6753 21.647 36.4281C22.7156 36.7489 23.8707 36.7218 24.9338 36.3351C25.9965 35.9484 26.8985 35.2262 27.5112 34.2938C28.0213 34.2645 28.5226 34.1594 29.0002 33.9858L31.6464 39.5233L27.1885 38.5122ZM11.4385 39.264C11.1983 38.7751 10.7035 38.4774 10.1766 38.4774C10.0733 38.4774 9.96892 38.4888 9.86491 38.5122L5.40703 39.5229L8.05327 33.9855C8.53081 34.1594 9.03252 34.2642 9.54228 34.2938C10.155 35.2262 11.0569 35.948 12.1197 36.3347C13.1828 36.7218 14.3378 36.7485 15.4064 36.4281C15.7378 36.6749 16.0967 36.8811 16.4747 37.0426L13.4523 43.3674L11.4385 39.264Z" fill="#005FEC" stroke="white" mask="url(#path-1-inside-1)"/>
<path d="M16.9229 21.976L17.0997 22.1527L17.2764 21.976L24.2347 15.0177C24.8861 14.3663 25.943 14.3663 26.5944 15.0177C27.2463 15.6696 27.2463 16.7261 26.5944 17.378L18.2795 25.6929C17.9666 26.0059 17.542 26.1818 17.0996 26.1818C16.6573 26.1818 16.2327 26.0059 15.9198 25.6929L10.7389 20.5121L10.7389 20.512C10.087 19.8606 10.087 18.8038 10.7389 18.1524L10.739 18.1523C11.3904 17.5004 12.4473 17.5004 13.0987 18.1523L13.0987 18.1523L16.9229 21.976Z" fill="#00ECD0" stroke="white" stroke-width="0.5"/>
</svg>
