<svg width="48" height="48" viewBox="0 0 48 48" fill="none" xmlns="http://www.w3.org/2000/svg">
<path d="M39.8745 29.933C41.8802 26.8868 43.0496 23.2434 43.0496 19.3312C43.0496 8.67188 34.3773 0 23.718 0C13.0587 0 4.38684 8.67188 4.38684 19.3312C4.38684 23.2434 5.55615 26.8868 7.56152 29.933L0 40.9607L8.65247 39.3475L10.266 48L17.3969 37.6C19.3788 38.2877 21.5054 38.6624 23.718 38.6624C25.931 38.6624 28.0576 38.2877 30.0392 37.6L37.1704 48L38.7836 39.3475L47.436 40.9607L39.8745 29.933ZM11.7949 40.7673L10.9149 36.0476L6.19556 36.928L9.38013 32.2833C10.9054 33.9701 12.7236 35.3866 14.7532 36.4537L11.7949 40.7673ZM7.21582 19.3312C7.21582 10.2319 14.6188 2.82898 23.718 2.82898C32.8176 2.82898 40.2206 10.2319 40.2206 19.3312C40.2206 28.4308 32.8176 35.8337 23.718 35.8337C14.6188 35.8337 7.21582 28.4308 7.21582 19.3312ZM36.5211 36.0476L35.6411 40.7673L32.6832 36.4537C34.7128 35.3866 36.531 33.9701 38.0563 32.2833L41.2408 36.9276L36.5211 36.0476Z" fill="#005FEC"/>
<path d="M20.272 22.9099L15.6724 18.3107L13.6721 20.3109L20.272 26.9108L33.7643 13.4188L31.764 11.4186L20.272 22.9099Z" fill="#00ECD0"/>
</svg>
