<svg width="56" height="9" viewBox="0 0 56 9" fill="none" xmlns="http://www.w3.org/2000/svg">
<path fill-rule="evenodd" clip-rule="evenodd" d="M8.42419 3.54134L5.68468 3.14332L4.46001 0.660945C4.42515 0.601654 4.36151 0.565247 4.29272 0.565247C4.22394 0.565247 4.1603 0.601654 4.12543 0.660945L2.9002 3.14276L0.159949 3.54134C0.0896573 3.55148 0.0312186 3.60065 0.00919999 3.66817C-0.0128186 3.7357 0.00540055 3.80986 0.0561986 3.8595L2.03903 5.79195L1.57104 8.52045C1.55909 8.5904 1.58786 8.66107 1.64526 8.70279C1.70266 8.74452 1.77876 8.75007 1.84161 8.71713L4.29207 7.42901L6.74253 8.71657C6.80538 8.74951 6.88148 8.74396 6.93888 8.70223C6.99628 8.66051 7.02505 8.58984 7.0131 8.51989L6.54511 5.79195L8.52794 3.8595C8.57873 3.80989 8.59697 3.73575 8.575 3.66824C8.55302 3.60073 8.49464 3.55154 8.42438 3.54134H8.42419Z" fill="#F5A623"/>
<path fill-rule="evenodd" clip-rule="evenodd" d="M20.0682 3.54134L17.3287 3.14332L16.1041 0.660945C16.0692 0.601654 16.0055 0.565247 15.9368 0.565247C15.868 0.565247 15.8043 0.601654 15.7695 0.660945L14.5442 3.14276L11.804 3.54134C11.7337 3.55148 11.6753 3.60065 11.6532 3.66817C11.6312 3.7357 11.6494 3.80986 11.7002 3.8595L13.6831 5.79195L13.2151 8.52045C13.2031 8.5904 13.2319 8.66107 13.2893 8.70279C13.3467 8.74452 13.4228 8.75007 13.4857 8.71713L15.9361 7.42901L18.3866 8.71657C18.4494 8.74951 18.5255 8.74396 18.5829 8.70223C18.6403 8.66051 18.6691 8.58984 18.6571 8.51989L18.1891 5.79195L20.172 3.8595C20.2228 3.80989 20.241 3.73575 20.219 3.66824C20.1971 3.60073 20.1387 3.55154 20.0684 3.54134H20.0682Z" fill="#F5A623"/>
<path fill-rule="evenodd" clip-rule="evenodd" d="M31.712 3.54134L28.9725 3.14332L27.7479 0.660945C27.713 0.601654 27.6493 0.565247 27.5806 0.565247C27.5118 0.565247 27.4481 0.601654 27.4133 0.660945L26.188 3.14276L23.4478 3.54134C23.3775 3.55148 23.3191 3.60065 23.297 3.66817C23.275 3.7357 23.2932 3.80986 23.344 3.8595L25.3269 5.79195L24.8589 8.52045C24.8469 8.5904 24.8757 8.66107 24.9331 8.70279C24.9905 8.74452 25.0666 8.75007 25.1295 8.71713L27.5799 7.42901L30.0304 8.71657C30.0932 8.74951 30.1693 8.74396 30.2267 8.70223C30.2841 8.66051 30.3129 8.58984 30.3009 8.51989L29.8329 5.79195L31.8158 3.8595C31.8666 3.80989 31.8848 3.73575 31.8628 3.66824C31.8409 3.60073 31.7825 3.55154 31.7122 3.54134H31.712Z" fill="#F5A623"/>
<path fill-rule="evenodd" clip-rule="evenodd" d="M43.3561 3.54134L40.6166 3.14332L39.3919 0.660945C39.357 0.601654 39.2934 0.565247 39.2246 0.565247C39.1558 0.565247 39.0922 0.601654 39.0573 0.660945L37.8321 3.14276L35.0918 3.54134C35.0215 3.55148 34.9631 3.60065 34.9411 3.66817C34.9191 3.7357 34.9373 3.80986 34.9881 3.8595L36.9709 5.79195L36.5029 8.52045C36.491 8.5904 36.5197 8.66107 36.5771 8.70279C36.6345 8.74452 36.7106 8.75007 36.7735 8.71713L39.224 7.42901L41.6744 8.71657C41.7373 8.74951 41.8134 8.74396 41.8708 8.70223C41.9282 8.66051 41.9569 8.58984 41.945 8.51989L41.477 5.79195L43.4598 3.8595C43.5106 3.80989 43.5289 3.73575 43.5069 3.66824C43.4849 3.60073 43.4265 3.55154 43.3563 3.54134H43.3561Z" fill="#F5A623"/>
<path fill-rule="evenodd" clip-rule="evenodd" d="M55.0001 3.54134L52.2606 3.14332L51.0359 0.660945C51.0011 0.601654 50.9374 0.565247 50.8687 0.565247C50.7999 0.565247 50.7362 0.601654 50.7014 0.660945L49.4761 3.14276L46.7359 3.54134C46.6656 3.55148 46.6071 3.60065 46.5851 3.66817C46.5631 3.7357 46.5813 3.80986 46.6321 3.8595L48.615 5.79195L48.147 8.52045C48.135 8.5904 48.1638 8.66107 48.2212 8.70279C48.2786 8.74452 48.3547 8.75007 48.4175 8.71713L50.868 7.42901L53.3185 8.71657C53.3813 8.74951 53.4574 8.74396 53.5148 8.70223C53.5722 8.66051 53.601 8.58984 53.589 8.51989L53.121 5.79195L55.1039 3.8595C55.1547 3.80989 55.1729 3.73575 55.1509 3.66824C55.1289 3.60073 55.0706 3.55154 55.0003 3.54134H55.0001Z" fill="#F5A623"/>
</svg>
